/* XPM */
static char * top_right_active_xpm[] = {
"4 26 3 1",
" 	c None",
".	c #282828",
"@	c #282828",
"    ",
"..  ",
"... ",
"@.. ",
"@...",
"@...",
"@...",
"@...",
"@...",
"@...",
"@...",
"@...",
"@...",
"@...",
"@...",
"@...",
"@...",
"@...",
"@...",
"@...",
"@...",
"@...",
"@...",
"@...",
"@...",
"@..."};
